<mxfile host="65bd71144e">
    <diagram name="Page-1" id="0">
        <mxGraphModel dx="493" dy="471" grid="1" gridSize="10" guides="1" tooltips="1" connect="1" arrows="1" fold="1" page="1" pageScale="1" pageWidth="827" pageHeight="1169" math="0" shadow="0">
            <root>
                <mxCell id="0"/>
                <mxCell id="1" parent="0"/>
                <mxCell id="IDLE" value="IDLE" style="ellipse;whiteSpace=wrap;html=1;aspect=fixed;" parent="1" vertex="1">
                    <mxGeometry x="200" y="300" width="80" height="80" as="geometry"/>
                </mxCell>
                <mxCell id="STORAGE" value="STORAGE" style="ellipse;whiteSpace=wrap;html=1;aspect=fixed;" parent="1" vertex="1">
                    <mxGeometry x="350" y="300" width="80" height="80" as="geometry"/>
                </mxCell>
                <mxCell id="EXPALIGN" value="EXPALIGN" style="ellipse;whiteSpace=wrap;html=1;aspect=fixed;" parent="1" vertex="1">
                    <mxGeometry x="500" y="300" width="80" height="80" as="geometry"/>
                </mxCell>
                <mxCell id="MANTSWAP" value="MANTSWAP" style="ellipse;whiteSpace=wrap;html=1;aspect=fixed;" parent="1" vertex="1">
                    <mxGeometry x="650" y="300" width="80" height="80" as="geometry"/>
                </mxCell>
                <mxCell id="MANTCALC" value="MANTCALC" style="ellipse;whiteSpace=wrap;html=1;aspect=fixed;" parent="1" vertex="1">
                    <mxGeometry x="650" y="450" width="80" height="80" as="geometry"/>
                </mxCell>
                <mxCell id="MANTALIGN" value="MANTALIGN" style="ellipse;whiteSpace=wrap;html=1;aspect=fixed;" parent="1" vertex="1">
                    <mxGeometry x="500" y="450" width="80" height="80" as="geometry"/>
                </mxCell>
                <mxCell id="OUTPUT" value="OUTPUT" style="ellipse;whiteSpace=wrap;html=1;aspect=fixed;" parent="1" vertex="1">
                    <mxGeometry x="350" y="450" width="80" height="80" as="geometry"/>
                </mxCell>
                <mxCell id="STOP" value="STOP" style="ellipse;whiteSpace=wrap;html=1;aspect=fixed;" parent="1" vertex="1">
                    <mxGeometry x="200" y="450" width="80" height="80" as="geometry"/>
                </mxCell>
                <mxCell id="e1" value="start=1" style="edgeStyle=none;html=1;exitX=1;exitY=0.5;entryX=0;entryY=0.5;" parent="1" source="IDLE" target="STORAGE" edge="1">
                    <mxGeometry relative="1" as="geometry"/>
                </mxCell>
                <mxCell id="e2" value="start=0" style="edgeStyle=none;html=1;exitX=0;exitY=0.5;" parent="1" source="IDLE" target="IDLE" edge="1">
                    <mxGeometry x="0.1385" y="36" relative="1" as="geometry">
                        <mxPoint x="120" y="260" as="sourcePoint"/>
                        <mxPoint x="180" y="310" as="targetPoint"/>
                        <Array as="points">
                            <mxPoint x="160" y="370"/>
                            <mxPoint x="130" y="340"/>
                            <mxPoint x="140" y="300"/>
                        </Array>
                        <mxPoint as="offset"/>
                    </mxGeometry>
                </mxCell>
                <mxCell id="e3" value="" style="edgeStyle=none;html=1;exitX=1;exitY=0.5;entryX=0;entryY=0.5;" parent="1" source="STORAGE" target="EXPALIGN" edge="1">
                    <mxGeometry relative="1" as="geometry"/>
                </mxCell>
                <mxCell id="e4" value="" style="edgeStyle=none;html=1;exitX=1;exitY=0.5;entryX=0;entryY=0.5;" parent="1" source="EXPALIGN" target="MANTSWAP" edge="1">
                    <mxGeometry relative="1" as="geometry"/>
                </mxCell>
                <mxCell id="e5" value="" style="edgeStyle=none;html=1;exitX=0.5;exitY=1;entryX=0.5;entryY=0;" parent="1" source="MANTSWAP" target="MANTCALC" edge="1">
                    <mxGeometry relative="1" as="geometry"/>
                </mxCell>
                <mxCell id="e6" value="" style="edgeStyle=none;html=1;exitX=0;exitY=0.5;entryX=1;entryY=0.5;" parent="1" source="MANTCALC" target="MANTALIGN" edge="1">
                    <mxGeometry relative="1" as="geometry"/>
                </mxCell>
                <mxCell id="e7" value="mantC[24]==0" style="edgeStyle=none;html=1;exitX=0.5;exitY=1;rounded=0;" parent="1" source="MANTALIGN" edge="1">
                    <mxGeometry relative="1" as="geometry">
                        <mxPoint x="540" y="530" as="sourcePoint"/>
                        <mxPoint x="540" y="530" as="targetPoint"/>
                        <Array as="points">
                            <mxPoint x="460" y="530"/>
                            <mxPoint x="460" y="570"/>
                            <mxPoint x="540" y="570"/>
                        </Array>
                    </mxGeometry>
                </mxCell>
                <mxCell id="e8" value="mantC[24]==1" style="edgeStyle=none;html=1;exitX=0;exitY=0.5;entryX=1;entryY=0.5;" parent="1" source="MANTALIGN" target="OUTPUT" edge="1">
                    <mxGeometry x="-0.1429" y="-30" relative="1" as="geometry">
                        <mxPoint as="offset"/>
                    </mxGeometry>
                </mxCell>
                <mxCell id="e9" value="" style="edgeStyle=none;html=1;exitX=0;exitY=0.5;entryX=1;entryY=0.5;" parent="1" source="OUTPUT" target="STOP" edge="1">
                    <mxGeometry relative="1" as="geometry"/>
                </mxCell>
                <mxCell id="e10" value="" style="edgeStyle=none;html=1;exitX=0;exitY=0.5;entryX=0;entryY=0.5;entryDx=0;entryDy=0;" parent="1" source="STOP" target="IDLE" edge="1">
                    <mxGeometry relative="1" as="geometry"/>
                </mxCell>
            </root>
        </mxGraphModel>
    </diagram>
</mxfile>